<mxfile host="app.diagrams.net" agent="Mozilla/5.0 (Windows NT 10.0; Win64; x64) AppleWebKit/537.36 (KHTML, like Gecko) Chrome/135.0.0.0 Safari/537.36" version="26.2.14">
  <diagram name="Página-1" id="5X9jEcnMrb2Z6g3jjzpa">
    <mxGraphModel dx="1426" dy="785" grid="1" gridSize="10" guides="1" tooltips="1" connect="1" arrows="1" fold="1" page="1" pageScale="1" pageWidth="827" pageHeight="1169" math="0" shadow="0">
      <root>
        <mxCell id="0" />
        <mxCell id="1" parent="0" />
        <mxCell id="cw50ATFfd75n2AM1mOIH-1" value="&lt;div&gt;interfaz de usuario&lt;/div&gt;UI" style="shape=module;align=left;spacingLeft=20;align=center;verticalAlign=top;whiteSpace=wrap;html=1;" vertex="1" parent="1">
          <mxGeometry x="260" y="200" width="130" height="50" as="geometry" />
        </mxCell>
        <mxCell id="cw50ATFfd75n2AM1mOIH-9" style="edgeStyle=orthogonalEdgeStyle;rounded=0;orthogonalLoop=1;jettySize=auto;html=1;entryX=0.5;entryY=1;entryDx=0;entryDy=0;" edge="1" parent="1" source="cw50ATFfd75n2AM1mOIH-2" target="cw50ATFfd75n2AM1mOIH-3">
          <mxGeometry relative="1" as="geometry" />
        </mxCell>
        <mxCell id="cw50ATFfd75n2AM1mOIH-2" value="&lt;div&gt;pruebas unitarias&lt;/div&gt;test" style="shape=module;align=left;spacingLeft=20;align=center;verticalAlign=top;whiteSpace=wrap;html=1;" vertex="1" parent="1">
          <mxGeometry x="260" y="535" width="130" height="50" as="geometry" />
        </mxCell>
        <mxCell id="cw50ATFfd75n2AM1mOIH-3" value="&lt;div&gt;archivos para manejar los métodos de las clases&lt;/div&gt;crud" style="shape=module;align=left;spacingLeft=20;align=center;verticalAlign=top;whiteSpace=wrap;html=1;" vertex="1" parent="1">
          <mxGeometry x="180" y="340" width="290" height="50" as="geometry" />
        </mxCell>
        <mxCell id="cw50ATFfd75n2AM1mOIH-4" value="&lt;div&gt;&lt;span style=&quot;background-color: transparent; color: light-dark(rgb(0, 0, 0), rgb(255, 255, 255));&quot;&gt;definición de las clases&lt;/span&gt;&lt;/div&gt;&lt;div&gt;&lt;span style=&quot;background-color: transparent; color: light-dark(rgb(0, 0, 0), rgb(255, 255, 255));&quot;&gt;modelo&lt;/span&gt;&lt;/div&gt;" style="shape=module;align=left;spacingLeft=20;align=center;verticalAlign=top;whiteSpace=wrap;html=1;" vertex="1" parent="1">
          <mxGeometry x="540" y="270" width="160" height="50" as="geometry" />
        </mxCell>
        <mxCell id="cw50ATFfd75n2AM1mOIH-7" style="edgeStyle=orthogonalEdgeStyle;rounded=0;orthogonalLoop=1;jettySize=auto;html=1;exitX=0.5;exitY=1;exitDx=0;exitDy=0;" edge="1" parent="1" source="cw50ATFfd75n2AM1mOIH-1" target="cw50ATFfd75n2AM1mOIH-3">
          <mxGeometry relative="1" as="geometry" />
        </mxCell>
        <mxCell id="cw50ATFfd75n2AM1mOIH-5" value="&lt;div&gt;iniciador de código&lt;/div&gt;main" style="shape=module;align=left;spacingLeft=20;align=center;verticalAlign=top;whiteSpace=wrap;html=1;" vertex="1" parent="1">
          <mxGeometry x="80" y="120" width="140" height="50" as="geometry" />
        </mxCell>
        <mxCell id="cw50ATFfd75n2AM1mOIH-8" style="edgeStyle=orthogonalEdgeStyle;rounded=0;orthogonalLoop=1;jettySize=auto;html=1;entryX=0.55;entryY=0.04;entryDx=0;entryDy=0;entryPerimeter=0;exitX=0.5;exitY=0;exitDx=0;exitDy=0;" edge="1" parent="1" source="cw50ATFfd75n2AM1mOIH-1" target="cw50ATFfd75n2AM1mOIH-4">
          <mxGeometry relative="1" as="geometry" />
        </mxCell>
        <mxCell id="cw50ATFfd75n2AM1mOIH-11" style="edgeStyle=orthogonalEdgeStyle;rounded=0;orthogonalLoop=1;jettySize=auto;html=1;entryX=0.563;entryY=1.02;entryDx=0;entryDy=0;entryPerimeter=0;" edge="1" parent="1" source="cw50ATFfd75n2AM1mOIH-2" target="cw50ATFfd75n2AM1mOIH-4">
          <mxGeometry relative="1" as="geometry" />
        </mxCell>
        <mxCell id="cw50ATFfd75n2AM1mOIH-12" style="edgeStyle=orthogonalEdgeStyle;rounded=0;orthogonalLoop=1;jettySize=auto;html=1;entryX=0;entryY=0.52;entryDx=0;entryDy=0;entryPerimeter=0;" edge="1" parent="1" source="cw50ATFfd75n2AM1mOIH-3" target="cw50ATFfd75n2AM1mOIH-4">
          <mxGeometry relative="1" as="geometry" />
        </mxCell>
        <mxCell id="cw50ATFfd75n2AM1mOIH-13" style="edgeStyle=orthogonalEdgeStyle;rounded=0;orthogonalLoop=1;jettySize=auto;html=1;entryX=0;entryY=0;entryDx=0;entryDy=15;entryPerimeter=0;" edge="1" parent="1" source="cw50ATFfd75n2AM1mOIH-5" target="cw50ATFfd75n2AM1mOIH-1">
          <mxGeometry relative="1" as="geometry" />
        </mxCell>
      </root>
    </mxGraphModel>
  </diagram>
</mxfile>
